<svg width="32" height="32" viewBox="0 0 32 32" fill="none" xmlns="http://www.w3.org/2000/svg">
<g clip-path="url(#clip0_4966_1784)">
<rect width="32" height="32" fill="white" fill-opacity="0.5"/>
<path d="M25.275 21.155C23.2607 22.2684 19.8582 23 16 23C12.1418 23 8.73928 22.2684 6.725 21.155C5.57849 22.1853 4.79999 24.6927 4.79999 25.8C4.79999 28.1196 9.8144 30 16 30C22.1856 30 27.2 28.1196 27.2 25.8C27.2 24.6927 26.4215 22.1853 25.275 21.155Z" fill="url(#paint0_linear_4966_1784)"/>
<path d="M25.275 10.845C26.4215 9.81463 27.2 7.30731 27.2 6.2C27.2 3.8804 22.1856 2 16 2C9.8144 2 4.79999 3.8804 4.79999 6.2C4.79999 7.30731 5.57849 9.81463 6.725 10.845C8.73928 9.73157 12.1418 9 16 9C19.8582 9 23.2607 9.73157 25.275 10.845Z" fill="url(#paint1_linear_4966_1784)"/>
<path d="M4.79999 13.1999V6.1999C4.79999 7.77924 7.21965 8.80795 7.21965 8.80795L24.722 16.1645C24.722 16.1645 27.2 17.2195 27.2 18.7999V25.7999C27.2 24.214 24.722 23.1645 24.722 23.1645L7.21965 15.808C7.21965 15.808 4.79999 14.7703 4.79999 13.1999Z" fill="url(#paint2_linear_4966_1784)"/>
<path d="M4.79999 13.1999V6.1999C4.79999 7.77924 7.21965 8.80795 7.21965 8.80795L24.722 16.1645C24.722 16.1645 27.2 17.2195 27.2 18.7999V25.7999C27.2 24.214 24.722 23.1645 24.722 23.1645L7.21965 15.808C7.21965 15.808 4.79999 14.7703 4.79999 13.1999Z" fill="url(#paint3_radial_4966_1784)"/>
<path d="M4.79999 13.1999V6.1999C4.79999 7.77924 7.21965 8.80795 7.21965 8.80795L24.722 16.1645C24.722 16.1645 27.2 17.2195 27.2 18.7999V25.7999C27.2 24.214 24.722 23.1645 24.722 23.1645L7.21965 15.808C7.21965 15.808 4.79999 14.7703 4.79999 13.1999Z" fill="url(#paint4_linear_4966_1784)"/>
<path d="M4.79999 18.8V25.8021C4.79999 24.2228 7.21965 23.1941 7.21965 23.1941L24.722 15.8354C24.722 15.8354 27.2 14.7805 27.2 13.2V6.2021C27.2 7.78804 24.722 8.83748 24.722 8.83748L7.21965 16.192C7.21965 16.192 4.79999 17.2296 4.79999 18.8Z" fill="url(#paint5_linear_4966_1784)"/>
<path d="M4.79999 18.8V25.8021C4.79999 24.2228 7.21965 23.1941 7.21965 23.1941L24.722 15.8354C24.722 15.8354 27.2 14.7805 27.2 13.2V6.2021C27.2 7.78804 24.722 8.83748 24.722 8.83748L7.21965 16.192C7.21965 16.192 4.79999 17.2296 4.79999 18.8Z" fill="url(#paint6_radial_4966_1784)"/>
</g>
<defs>
<linearGradient id="paint0_linear_4966_1784" x1="21.6" y1="30" x2="11.8" y2="16" gradientUnits="userSpaceOnUse">
<stop stop-color="#0FAFFF"/>
<stop offset="0.135374" stop-color="#0094F0"/>
<stop offset="0.551465" stop-color="#2052CB"/>
<stop offset="0.74633" stop-color="#312A9A"/>
</linearGradient>
<linearGradient id="paint1_linear_4966_1784" x1="20.5062" y1="2.6125" x2="10.4" y2="17.4" gradientUnits="userSpaceOnUse">
<stop stop-color="#0FAFFF"/>
<stop offset="0.156888" stop-color="#0094F0"/>
<stop offset="0.563871" stop-color="#2052CB"/>
<stop offset="0.718803" stop-color="#312A9A"/>
</linearGradient>
<linearGradient id="paint2_linear_4966_1784" x1="27.2" y1="21.5999" x2="4.79999" y2="10.3999" gradientUnits="userSpaceOnUse">
<stop stop-color="#3BD5FF"/>
<stop offset="1" stop-color="#0094F0"/>
</linearGradient>
<radialGradient id="paint3_radial_4966_1784" cx="0" cy="0" r="1" gradientUnits="userSpaceOnUse" gradientTransform="translate(27.2 18.7924) rotate(-159.494) scale(23.9154 26.5784)">
<stop stop-color="#DECBFF" stop-opacity="0.7"/>
<stop offset="1" stop-color="#D1D1FF" stop-opacity="0"/>
</radialGradient>
<linearGradient id="paint4_linear_4966_1784" x1="19.5" y1="24.3999" x2="12.5356" y2="7.58517" gradientUnits="userSpaceOnUse">
<stop stop-color="#1E85BF" stop-opacity="0"/>
<stop offset="0.129623" stop-color="#1E85BF" stop-opacity="0.15"/>
<stop offset="0.376408" stop-color="#2764E7"/>
<stop offset="0.657835" stop-color="#2764E7"/>
<stop offset="0.887672" stop-color="#1E85BF" stop-opacity="0.15"/>
<stop offset="1" stop-color="#1E85BF" stop-opacity="0"/>
</linearGradient>
<linearGradient id="paint5_linear_4966_1784" x1="27.2" y1="10.4" x2="4.79999" y2="21.6" gradientUnits="userSpaceOnUse">
<stop offset="0.2" stop-color="#6CE0FF"/>
<stop offset="0.8" stop-color="#0094F0"/>
</linearGradient>
<radialGradient id="paint6_radial_4966_1784" cx="0" cy="0" r="1" gradientUnits="userSpaceOnUse" gradientTransform="translate(27.2 9.01858) rotate(150.707) scale(25.6843 28.5618)">
<stop offset="0.0247381" stop-color="#DECBFF" stop-opacity="0.9"/>
<stop offset="0.8" stop-color="#D1D1FF" stop-opacity="0"/>
</radialGradient>
<clipPath id="clip0_4966_1784">
<rect width="32" height="32" fill="white"/>
</clipPath>
</defs>
</svg>
